<svg width="20" height="19" viewBox="0 0 20 19" fill="none" xmlns="http://www.w3.org/2000/svg">
<path d="M12 15.5H19M1 15.5H3M3 15.5C3 16.8807 4.11929 18 5.5 18C6.88071 18 8 16.8807 8 15.5C8 14.1193 6.88071 13 5.5 13C4.11929 13 3 14.1193 3 15.5ZM18 9.5H19M1 9.5H8M11 3.5H19M11 3.5C11 2.11929 9.88071 1 8.5 1C7.11929 1 6 2.11929 6 3.5C6 4.88071 7.11929 6 8.5 6C9.88071 6 11 4.88071 11 3.5ZM1 3.5H2M14.5 12C13.1193 12 12 10.8807 12 9.5C12 8.11929 13.1193 7 14.5 7C15.8807 7 17 8.11929 17 9.5C17 10.8807 15.8807 12 14.5 12Z" stroke="white" stroke-width="2" stroke-linecap="round" stroke-linejoin="round"/>
</svg>
