<?xml version="1.0" encoding="UTF-8" standalone="no"?>
<svg
   width="16"
   height="21"
   viewBox="0 0 16 21"
   fill="none"
   version="1.1"
   id="svg235"
   sodipodi:docname="Layer 80.svg"
   inkscape:version="1.2.2 (b0a8486541, 2022-12-01)"
   xmlns:inkscape="http://www.inkscape.org/namespaces/inkscape"
   xmlns:sodipodi="http://sodipodi.sourceforge.net/DTD/sodipodi-0.dtd"
   xmlns="http://www.w3.org/2000/svg"
   xmlns:svg="http://www.w3.org/2000/svg">
  <sodipodi:namedview
     id="namedview237"
     pagecolor="#ffffff"
     bordercolor="#000000"
     borderopacity="0.25"
     inkscape:showpageshadow="2"
     inkscape:pageopacity="0.0"
     inkscape:pagecheckerboard="0"
     inkscape:deskcolor="#d1d1d1"
     showgrid="false"
     inkscape:zoom="19.488889"
     inkscape:cx="20.011403"
     inkscape:cy="9.9800456"
     inkscape:window-width="1852"
     inkscape:window-height="1052"
     inkscape:window-x="0"
     inkscape:window-y="0"
     inkscape:window-maximized="1"
     inkscape:current-layer="svg235" />
  <path
     id="Vector"
     d="M 13,0 H 3 C 2.2044,0 1.4413,0.31607 0.8787,0.87868 0.3161,1.44129 0,2.2044 0,3 v 15.59 c 0.0063,0.265 0.0653,0.5262 0.1734,0.7683 0.1082,0.242 0.2634,0.4602 0.4566,0.6417 0.3729,0.3605 0.8713,0.562 1.39,0.562 0.5187,0 1.0171,-0.2015 1.39,-0.562 l 4.4700004,-4.46 0.12,-0.05 0.12,0.05 L 12.59,20 c 0.2797,0.278 0.6353,0.4671 1.0221,0.5436 0.3869,0.0765 0.7877,0.0369 1.1521,-0.1138 0.3645,-0.1506 0.6762,-0.4057 0.8961,-0.7331 C 15.8802,19.3694 15.9983,18.9843 16,18.59 V 3 C 16,2.2044 15.6839,1.44129 15.1213,0.87868 14.5587,0.31607 13.7956,0 13,0 Z m 1,18.59 -4.4599996,-4.47 c -0.4112,-0.4031 -0.9641,-0.6289 -1.54,-0.6289 C 7.4241,13.4911 6.8712,13.7169 6.46,14.12 L 2,18.58 V 6 H 14 Z M 14,4 H 2 V 3 C 2,2.7348 2.1054,2.4804 2.2929,2.2929 2.4804,2.1054 2.7348,2 3,2 h 10 c 0.2652,0 0.5196,0.1054 0.7071,0.2929 C 13.8946,2.4804 14,2.7348 14,3 Z"
     fill="#f3eaf4"
     style="filter:url(#filter0_d_24_391)" />
</svg>
