<svg width="16" height="21" viewBox="0 0 16 21" fill="none" xmlns="http://www.w3.org/2000/svg">
<path d="M13 0H3C2.20435 0 1.44129 0.316071 0.87868 0.87868C0.316071 1.44129 0 2.20435 0 3V18.59C0.0063125 18.855 0.0652605 19.1162 0.173416 19.3583C0.281571 19.6003 0.436774 19.8185 0.63 20C1.00293 20.3605 1.50132 20.562 2.02 20.562C2.53868 20.562 3.03707 20.3605 3.41 20L7.88 15.54L8 15.49L8.12 15.54L12.59 20C12.8697 20.278 13.2253 20.4671 13.6121 20.5436C13.999 20.6201 14.3998 20.5805 14.7642 20.4298C15.1287 20.2792 15.4404 20.0241 15.6603 19.6967C15.8802 19.3694 15.9983 18.9843 16 18.59V3C16 2.20435 15.6839 1.44129 15.1213 0.87868C14.5587 0.316071 13.7956 0 13 0Z" fill="#F3EAF4"/>
</svg>
