<svg width="18" height="21" viewBox="0 0 18 21" fill="none" xmlns="http://www.w3.org/2000/svg">
<path d="M14 12.0339C13.4515 12.0357 12.9093 12.1503 12.407 12.3705C11.9046 12.5907 11.453 12.9118 11.08 13.3139L7.77 11.3139C8.0769 10.4813 8.0769 9.56657 7.77 8.73395L11.08 6.73395C11.7174 7.41466 12.5725 7.85129 13.4977 7.96836C14.4228 8.08543 15.3598 7.87559 16.1466 7.37511C16.9335 6.87463 17.5207 6.11496 17.8069 5.22743C18.093 4.33989 18.0601 3.38027 17.7138 2.51444C17.3674 1.64862 16.7295 0.931005 15.9102 0.485651C15.0909 0.040298 14.1417 -0.104805 13.2268 0.075426C12.3118 0.255657 11.4886 0.749893 10.8994 1.4727C10.3102 2.19551 9.99209 3.10146 10 4.03395C9.99907 4.37156 10.0428 4.7078 10.13 5.03395L6.66 7.03395C5.92911 6.38049 4.98036 6.02382 4 6.03395C2.93913 6.03395 1.92172 6.45538 1.17157 7.20552C0.421427 7.95567 0 8.97308 0 10.0339C0 11.0948 0.421427 12.1122 1.17157 12.8624C1.92172 13.6125 2.93913 14.0339 4 14.0339C4.98036 14.0441 5.92911 13.6874 6.66 13.0339L10.13 15.0339C10.0428 15.3601 9.99907 15.6963 10 16.0339C10 16.8251 10.2346 17.5984 10.6741 18.2562C11.1136 18.914 11.7384 19.4267 12.4693 19.7295C13.2002 20.0322 14.0044 20.1114 14.7804 19.9571C15.5563 19.8027 16.269 19.4218 16.8284 18.8624C17.3878 18.303 17.7688 17.5902 17.9231 16.8143C18.0775 16.0384 17.9983 15.2341 17.6955 14.5032C17.3928 13.7723 16.8801 13.1476 16.2223 12.7081C15.5645 12.2685 14.7911 12.0339 14 12.0339ZM14 2.03395C14.3956 2.03395 14.7822 2.15125 15.1111 2.37101C15.44 2.59077 15.6964 2.90313 15.8478 3.26858C15.9991 3.63403 16.0387 4.03617 15.9616 4.42413C15.8844 4.81209 15.6939 5.16846 15.4142 5.44816C15.1345 5.72787 14.7781 5.91835 14.3902 5.99552C14.0022 6.07269 13.6001 6.03308 13.2346 5.88171C12.8692 5.73033 12.5568 5.47399 12.3371 5.14509C12.1173 4.81619 12 4.42951 12 4.03395C12 3.50352 12.2107 2.99481 12.5858 2.61974C12.9609 2.24466 13.4696 2.03395 14 2.03395ZM4 12.0339C3.60444 12.0339 3.21776 11.9167 2.88886 11.6969C2.55996 11.4771 2.30362 11.1648 2.15224 10.7993C2.00087 10.4339 1.96126 10.0317 2.03843 9.64377C2.1156 9.25581 2.30608 8.89944 2.58579 8.61974C2.86549 8.34003 3.22186 8.14955 3.60982 8.07238C3.99778 7.99521 4.39991 8.03481 4.76537 8.18619C5.13082 8.33756 5.44318 8.59391 5.66294 8.92281C5.8827 9.25171 6 9.63839 6 10.0339C6 10.5644 5.78929 11.0731 5.41421 11.4482C5.03914 11.8232 4.53043 12.0339 4 12.0339ZM14 18.0339C13.6044 18.0339 13.2178 17.9167 12.8889 17.6969C12.56 17.4771 12.3036 17.1648 12.1522 16.7993C12.0009 16.4339 11.9613 16.0317 12.0384 15.6438C12.1156 15.2558 12.3061 14.8994 12.5858 14.6197C12.8655 14.34 13.2219 14.1495 13.6098 14.0724C13.9978 13.9952 14.3999 14.0348 14.7654 14.1862C15.1308 14.3376 15.4432 14.5939 15.6629 14.9228C15.8827 15.2517 16 15.6384 16 16.0339C16 16.5644 15.7893 17.0731 15.4142 17.4482C15.0391 17.8232 14.5304 18.0339 14 18.0339Z" fill="white"/>
</svg>
