<?xml version="1.0" encoding="UTF-8" standalone="no"?>
<svg
   width="20"
   height="20"
   viewBox="0 0 20 20"
   fill="none"
   version="1.1"
   id="svg4"
   sodipodi:docname="Layer 22(1).svg"
   inkscape:version="1.2.2 (b0a8486541, 2022-12-01)"
   xmlns:inkscape="http://www.inkscape.org/namespaces/inkscape"
   xmlns:sodipodi="http://sodipodi.sourceforge.net/DTD/sodipodi-0.dtd"
   xmlns="http://www.w3.org/2000/svg"
   xmlns:svg="http://www.w3.org/2000/svg">
  <defs
     id="defs8" />
  <sodipodi:namedview
     id="namedview6"
     pagecolor="#ffffff"
     bordercolor="#000000"
     borderopacity="0.25"
     inkscape:showpageshadow="2"
     inkscape:pageopacity="0.0"
     inkscape:pagecheckerboard="0"
     inkscape:deskcolor="#d1d1d1"
     showgrid="false"
     inkscape:zoom="19.931818"
     inkscape:cx="10.259977"
     inkscape:cy="10.009122"
     inkscape:window-width="1852"
     inkscape:window-height="1052"
     inkscape:window-x="0"
     inkscape:window-y="0"
     inkscape:window-maximized="1"
     inkscape:current-layer="svg4" />
  <g
     id="Layer 22"
     filter="url(#filter0_d_36_562)"
     transform="translate(-12.000007,-8)">
    <path
       id="Vector"
       d="m 25.64,15.36 c 0.1686,0.1704 0.2631,0.4003 0.2631,0.64 0,0.2397 -0.0945,0.4696 -0.2631,0.64 l -4,4 c -0.1704,0.1685 -0.4003,0.2631 -0.64,0.2631 -0.2396,0 -0.4696,-0.0946 -0.64,-0.2631 l -2,-2 c -0.1418,-0.1747 -0.2137,-0.3958 -0.2021,-0.6205 0.0117,-0.2247 0.1062,-0.4372 0.2653,-0.5963 0.1592,-0.1591 0.3716,-0.2536 0.5963,-0.2653 0.2247,-0.0116 0.4458,0.0603 0.6205,0.2021 l 1.36,1.37 3.36,-3.37 c 0.1704,-0.1685 0.4004,-0.2631 0.64,-0.2631 0.2397,0 0.4696,0.0946 0.64,0.2631 z M 32,18 c 0,1.9778 -0.5865,3.9112 -1.6853,5.5557 -1.0988,1.6445 -2.6606,2.9262 -4.4879,3.6831 -1.8272,0.7569 -3.8379,0.9549 -5.7777,0.5691 -1.9398,-0.3859 -3.7216,-1.3383 -5.1202,-2.7368 -1.3985,-1.3986 -2.3509,-3.1804 -2.7367,-5.1202 -0.3859,-1.9398 -0.1879,-3.9505 0.569,-5.7777 0.7569,-1.8273 2.0386,-3.3891 3.6831,-4.4879 C 18.0888,8.58649 20.0222,8 22,8 c 1.3132,0 2.6136,0.25866 3.8268,0.7612 1.2133,0.50255 2.3157,1.2391 3.2443,2.1677 0.9286,0.9286 1.6652,2.031 2.1677,3.2443 C 31.7413,15.3864 32,16.6868 32,18 Z m -2,0 c 0,-1.5823 -0.4692,-3.129 -1.3482,-4.4446 -0.8791,-1.3156 -2.1285,-2.3409 -3.5903,-2.9464 -1.4618,-0.6055 -3.0704,-0.76396 -4.6222,-0.4553 -1.5519,0.3087 -2.9773,1.0706 -4.0961,2.1894 -1.1189,1.1189 -1.8808,2.5443 -2.1895,4.0962 -0.3087,1.5518 -0.1502,3.1604 0.4553,4.6222 0.6055,1.4618 1.6308,2.7112 2.9464,3.5903 C 18.871,25.5308 20.4178,26 22,26 24.1217,26 26.1566,25.1571 27.6569,23.6569 29.1572,22.1566 30,20.1217 30,18 Z"
       fill="#f3eaf4" />
  </g>
</svg>
