<?xml version="1.0" encoding="UTF-8" standalone="no"?>
<svg
   width="20"
   height="20"
   viewBox="0 0 20 20"
   fill="none"
   version="1.1"
   id="svg2"
   sodipodi:docname="watched_filled.svg"
   inkscape:version="1.4.2 (ebf0e940d0, 2025-05-08)"
   xmlns:inkscape="http://www.inkscape.org/namespaces/inkscape"
   xmlns:sodipodi="http://sodipodi.sourceforge.net/DTD/sodipodi-0.dtd"
   xmlns="http://www.w3.org/2000/svg"
   xmlns:svg="http://www.w3.org/2000/svg">
  <defs
     id="defs2" />
  <sodipodi:namedview
     id="namedview2"
     pagecolor="#ffffff"
     bordercolor="#999999"
     borderopacity="1"
     inkscape:showpageshadow="2"
     inkscape:pageopacity="0"
     inkscape:pagecheckerboard="0"
     inkscape:deskcolor="#d1d1d1"
     inkscape:zoom="14.902275"
     inkscape:cx="14.293119"
     inkscape:cy="12.313556"
     inkscape:window-width="1852"
     inkscape:window-height="1052"
     inkscape:window-x="0"
     inkscape:window-y="0"
     inkscape:window-maximized="1"
     inkscape:current-layer="svg2" />
  <path
     id="path3"
     style="fill:#c3d350"
     d="M 10 0 C 8.02219 0 6.0878494 0.58673685 4.4433594 1.6855469 C 2.7988694 2.7843669 1.5185997 4.3465581 0.76171875 6.1738281 C 0.00484259 8.0010881 -0.19444675 10.011372 0.19140625 11.951172 C 0.57725825 13.890972 1.5311575 15.671712 2.9296875 17.070312 C 4.3282075 18.468812 6.1090181 19.422694 8.0488281 19.808594 C 9.9886381 20.194394 11.998972 19.995181 13.826172 19.238281 C 15.653472 18.481381 17.215653 17.201141 18.314453 15.556641 C 19.413253 13.912141 20 11.9778 20 10 C 20 8.68678 19.740781 7.3870781 19.238281 6.1738281 C 18.735781 4.9605681 17.998912 3.8582775 17.070312 2.9296875 C 16.141712 2.0011075 15.039472 1.2642637 13.826172 0.76171875 C 12.612972 0.25917175 11.3132 0 10 0 z M 13 7.0976562 C 13.2397 7.0976564 13.470325 7.190825 13.640625 7.359375 C 13.809224 7.529745 13.902344 7.76034 13.902344 8 C 13.902344 8.23965 13.809225 8.470255 13.640625 8.640625 L 9.640625 12.640625 C 9.470255 12.809224 9.23965 12.902344 9 12.902344 C 8.76035 12.902344 8.529745 12.809225 8.359375 12.640625 L 6.359375 10.640625 C 6.2176151 10.465925 6.1465231 10.244231 6.1582031 10.019531 C 6.1698731 9.7948014 6.2647181 9.5829381 6.4238281 9.4238281 C 6.5829381 9.2647181 6.7948213 9.1698831 7.0195312 9.1582031 C 7.2442412 9.1465231 7.465875 9.217615 7.640625 9.359375 L 9 10.730469 L 12.359375 7.359375 C 12.529775 7.1908252 12.7604 7.0976562 13 7.0976562 z " />
</svg>
